<svg width="74" height="74" viewBox="0 0 74 74" fill="none" xmlns="http://www.w3.org/2000/svg">
<path d="M7.08938 16.1252C7.89008 17.1702 9.42066 17.2656 10.3442 16.342L11.8054 14.8794L28.373 31.447L31.4385 28.3815L14.8709 11.8139L16.3408 10.344C17.2701 9.41323 17.1632 7.87976 16.124 7.09062L7.43914 0.446525C6.57629 -0.213981 5.35645 -0.133044 4.58899 0.634416L0.63607 4.58878C-0.132835 5.35624 -0.215217 6.57464 0.446735 7.43894L7.08938 16.1252Z" fill="white"/>
<path d="M40.8326 54.137C40.8355 54.0907 40.837 54.043 40.837 53.9939C40.837 52.5991 39.5203 50.5237 38.7456 49.3732L49.373 38.7458C50.548 39.5364 52.742 40.9268 54.1396 40.8285L40.8326 54.137Z" fill="white"/>
<path d="M69.953 23.5874C65.9914 27.549 60.2246 28.6026 55.3005 26.7469L46.3381 35.7107L35.7107 46.338L26.7469 55.3004C28.6027 60.2246 27.5491 65.9914 23.5875 69.953C19.7719 73.7686 14.2811 74.8858 9.48414 73.3046C8.69934 73.0459 8.47098 72.0414 9.05633 71.4575L16.1832 64.3293L15.0139 58.9831L9.66914 57.8167L2.54232 64.9435C1.95841 65.5289 0.953919 65.3005 0.695209 64.5157C-0.88596 59.7187 0.229819 54.2265 4.04688 50.4124C8.00848 46.4508 13.7767 45.3986 18.6994 47.2529C18.6994 47.2529 46.1213 19.8311 47.253 18.6994C45.3986 13.7767 46.4508 8.00842 50.4124 4.04682C54.2266 0.229758 59.7188 -0.886021 64.5158 0.695148C65.3006 0.953858 65.5289 1.95835 64.9436 2.54225L57.8168 9.66908L58.9831 15.0138L64.3293 16.1831L71.4576 9.05627C72.0415 8.47092 73.046 8.69928 73.3047 9.48408C74.8859 14.2811 73.7686 19.7718 69.953 23.5874Z" fill="white"/>
<path d="M72.6037 58.1201L57.7921 43.3071L43.3145 57.7877L58.1245 72.5992C59.9904 74.4666 63.0126 74.4666 64.8799 72.5992C70.2844 67.1948 67.2011 70.2795 72.6037 64.8769C74.4652 63.0125 74.4652 59.9846 72.6037 58.1201Z" fill="white"/>
</svg>
