<svg width="74" height="44" viewBox="0 0 74 44" fill="none" xmlns="http://www.w3.org/2000/svg">
<path d="M59.9202 2.31395C53.0113 0.778301 45.9143 0 38.8292 0H35.1707C28.0856 0 20.9885 0.778301 14.0797 2.31395H14.0782C11.2359 2.94786 9.25 5.42296 9.25 8.33454V34.8319C9.25 37.7436 11.2359 40.2187 14.0798 40.8525C20.9887 42.3881 28.0857 43.1664 35.1708 43.1664H38.8293C45.9144 43.1664 53.0115 42.3881 59.9219 40.8525C62.7641 40.2189 64.75 37.7438 64.75 34.832V8.33454C64.75 5.42296 62.7641 2.94786 59.9202 2.31395Z" fill="white"/>
<path d="M4.625 0H1.54171C0.689559 0 0 0.689559 0 1.54157V41.6249C0 42.477 0.689559 43.1666 1.54171 43.1666H4.625C5.47716 43.1666 6.16671 42.477 6.16671 41.6249V1.54157C6.16671 0.689559 5.47716 0 4.625 0Z" fill="white"/>
<path d="M72.4583 0H69.375C68.5229 0 67.8333 0.689559 67.8333 1.54171V41.625C67.8333 42.4772 68.5229 43.1667 69.375 43.1667H72.4583C73.3105 43.1667 74 42.4772 74 41.625V1.54157C74 0.689559 73.3105 0 72.4583 0Z" fill="white"/>
</svg>
