<svg width="74" height="74" viewBox="0 0 74 74" fill="none" xmlns="http://www.w3.org/2000/svg">
<path d="M72.7986 35.0546L63.3187 30.3347L42.4759 40.7125C40.7899 41.5521 38.8965 41.9961 37 41.9961C35.1035 41.9961 33.2101 41.5521 31.5241 40.7125L10.6813 30.3347L1.20142 35.0546C0.46521 35.4213 0 36.1729 0 36.9953C0 37.8183 0.46521 38.5694 1.20142 38.9361L33.4567 54.9963C34.566 55.5491 35.7828 55.8251 37 55.8251C38.2168 55.8251 39.434 55.5491 40.5433 54.9972L72.7986 38.9361C73.5348 38.5694 74 37.8183 74 36.9953C74 36.1729 73.5348 35.4213 72.7986 35.0546Z" fill="white"/>
<path d="M72.7986 53.2247L63.3187 48.5044L42.4759 58.8826C40.7899 59.7223 38.8965 60.1654 37 60.1654C35.1035 60.1654 33.2101 59.7223 31.5241 58.8826L10.6813 48.5044L1.20142 53.2247C0.46521 53.591 0 54.343 0 55.165C0 55.9875 0.46521 56.7391 1.20142 57.1063L33.4567 73.1664C34.566 73.7188 35.7828 73.9952 37 73.9952C38.2168 73.9947 39.434 73.7188 40.5433 73.1664L72.7986 57.1063C73.5348 56.7391 74 55.9875 74 55.165C74 54.3426 73.5348 53.591 72.7986 53.2247Z" fill="white"/>
<path d="M1.20142 20.7708L33.4567 36.8314C34.566 37.3833 35.7828 37.6602 37 37.6602C38.2172 37.6602 39.434 37.3833 40.5433 36.8314L72.7986 20.7708C73.5348 20.4045 74 19.6525 74 18.8305C74 18.0076 73.5348 17.2556 72.7986 16.8893L40.5433 0.828232C38.3243 -0.276077 35.6757 -0.276077 33.4567 0.828232L1.20142 16.8893C0.46521 17.2556 0 18.0076 0 18.8305C0 19.6525 0.46521 20.4045 1.20142 20.7708Z" fill="white"/>
</svg>
