<svg width="74" height="74" viewBox="0 0 74 74" fill="none" xmlns="http://www.w3.org/2000/svg">
<path fill-rule="evenodd" clip-rule="evenodd" d="M37 2.3871C36.3409 2.3871 35.8065 1.85269 35.8065 1.19355C35.8065 0.534411 36.3409 0 37 0C44.8974 0 52.2195 2.47721 58.232 6.6976C63.6446 10.4968 67.9935 15.714 70.7421 21.8118L71.1601 19.3947C71.2708 18.7459 71.8865 18.3096 72.5355 18.4203C73.1844 18.531 73.6206 19.1468 73.5099 19.7957L72.3519 26.492C72.2412 27.1408 71.6254 27.5771 70.9764 27.4664C70.8056 27.4373 70.6496 27.3731 70.5144 27.2826L65.3314 24.0479C64.7727 23.7003 64.6016 22.9655 64.949 22.4068C65.2967 21.8481 66.0314 21.6769 66.5902 22.0244L68.8612 23.4417C66.3127 17.4609 62.1254 12.3414 56.8612 8.64651C51.2422 4.70228 44.3931 2.3871 37 2.3871ZM41.8275 16.7737L40.2809 12.756H33.7189L32.1725 16.7735C30.0319 17.283 27.9875 18.1316 26.1138 19.2854L22.1767 17.5368L17.5368 22.177L19.2851 26.1135C18.1312 27.9872 17.2826 30.0319 16.7732 32.1727L12.756 33.7189V40.2811L16.7728 41.8272C17.2823 43.9682 18.1309 46.0135 19.2849 47.8874L17.537 51.8231L22.1772 56.463L26.1141 54.7145C27.9877 55.8681 30.0321 56.7168 32.1727 57.2263L33.7191 61.2438H40.2812L41.8272 57.2272C43.9682 56.7177 46.0135 55.8691 47.8874 54.7151L51.8231 56.463L56.463 51.823L54.7145 47.8861C55.8681 46.0125 56.7168 43.9679 57.2263 41.8275L61.244 40.2811V33.7191L57.2274 32.173C56.7179 30.0319 55.8693 27.9866 54.7151 26.1128L56.463 22.177L51.823 17.5371L47.8861 19.2857C46.0125 18.1318 43.9679 17.283 41.8275 16.7737ZM37 24.5556C30.1265 24.5556 24.5556 30.1265 24.5556 37C24.5556 43.8735 30.1265 49.4444 37 49.4444C43.8735 49.4444 49.4444 43.8735 49.4444 37C49.4444 30.1265 43.8735 24.5556 37 24.5556ZM2.8399 54.6053C2.7292 55.2541 2.11348 55.6904 1.46463 55.5797C0.81579 55.469 0.379548 54.8532 0.49025 54.2043L1.64829 47.508C1.75899 46.8592 2.37471 46.4229 3.02371 46.5336C3.19453 46.5627 3.35059 46.627 3.48576 46.7174L8.66874 49.9521C9.22747 50.2997 9.3986 51.0345 9.05113 51.5932C8.7035 52.152 7.96873 52.3231 7.41 51.9756L5.14076 50.5593C7.67108 56.4992 11.8125 61.5867 17.0163 65.2717C22.6558 69.2656 29.5505 71.6129 37 71.6129C37.6591 71.6129 38.1936 72.1473 38.1936 72.8065C38.1936 73.4656 37.6591 74 37 74C29.0514 74 21.6832 71.4871 15.6453 67.2113C10.2879 63.4173 5.98415 58.2352 3.25764 52.1897L2.8399 54.6053ZM54.6053 71.1601C55.2541 71.2708 55.6904 71.8865 55.5797 72.5355C55.469 73.1844 54.8532 73.6206 54.2043 73.5099L47.508 72.3519C46.8592 72.2412 46.4229 71.6254 46.5336 70.9764C46.5627 70.8056 46.627 70.6496 46.7174 70.5144L49.9521 65.3314C50.2997 64.7727 51.0345 64.6016 51.5932 64.949C52.152 65.2967 52.3231 66.0314 51.9756 66.5902L50.5587 68.8606C56.6022 66.2855 61.7645 62.0404 65.4652 56.704C69.3414 51.1148 71.6129 44.3247 71.6129 37C71.6129 36.3409 72.1473 35.8065 72.8065 35.8065C73.4656 35.8065 74 36.3409 74 37C74 44.8203 71.5699 52.0768 67.4234 58.0561C63.6123 63.5517 58.3493 67.965 52.1889 70.7422L54.6053 71.1601ZM19.3947 2.8399C18.7459 2.7292 18.3096 2.11348 18.4203 1.46448C18.531 0.815641 19.1468 0.379399 19.7957 0.490101L26.492 1.64814C27.1408 1.75884 27.5771 2.37456 27.4664 3.02356C27.4373 3.19438 27.3731 3.35044 27.2826 3.48561L24.0479 8.66859C23.7003 9.22732 22.9655 9.39845 22.4068 9.05098C21.8481 8.70335 21.6769 7.96858 22.0244 7.40985L23.4417 5.13867C17.465 7.68556 12.3489 11.8685 8.65487 17.1267C4.70556 22.7483 2.3871 29.6018 2.3871 37C2.3871 37.6591 1.85269 38.1936 1.19355 38.1936C0.534411 38.1936 0 37.6591 0 37C0 29.0971 2.48049 21.7706 6.70595 15.7559C10.5047 10.3487 15.7184 6.00415 21.8112 3.25779L19.3947 2.8399Z" fill="#FFF4F4"/>
</svg>
