<svg width="74" height="74" viewBox="0 0 74 74" fill="none" xmlns="http://www.w3.org/2000/svg">
<path d="M21.6797 21.6797H52.3203V52.3203H21.6797V21.6797Z" fill="white"/>
<path d="M71.832 30.4961C73.0295 30.4961 74 29.5256 74 28.3281C74 27.1307 73.0295 26.1602 71.832 26.1602H65.3281V21.8242H71.832C73.0295 21.8242 74 20.8537 74 19.6562C74 18.4588 73.0295 17.4883 71.832 17.4883H65.3281V13.7305C65.3281 10.9409 63.0591 8.67188 60.2695 8.67188H56.5117V2.16797C56.5117 0.970505 55.5412 0 54.3438 0C53.1463 0 52.1758 0.970505 52.1758 2.16797V8.67188H47.8398V2.16797C47.8398 0.970505 46.8693 0 45.6719 0C44.4744 0 43.5039 0.970505 43.5039 2.16797V8.67188H39.168V2.16797C39.168 0.970505 38.1975 0 37 0C35.8025 0 34.832 0.970505 34.832 2.16797V8.67188H30.4961V2.16797C30.4961 0.970505 29.5256 0 28.3281 0C27.1307 0 26.1602 0.970505 26.1602 2.16797V8.67188H21.8242V2.16797C21.8242 0.970505 20.8537 0 19.6562 0C18.4588 0 17.4883 0.970505 17.4883 2.16797V8.67188H13.7305C10.9409 8.67188 8.67188 10.9409 8.67188 13.7305V17.4883H2.16797C0.970505 17.4883 0 18.4588 0 19.6562C0 20.8537 0.970505 21.8242 2.16797 21.8242H8.67188V26.1602H2.16797C0.970505 26.1602 0 27.1307 0 28.3281C0 29.5256 0.970505 30.4961 2.16797 30.4961H8.67188V34.832H2.16797C0.970505 34.832 0 35.8025 0 37C0 38.1975 0.970505 39.168 2.16797 39.168H8.67188V43.5039H2.16797C0.970505 43.5039 0 44.4744 0 45.6719C0 46.8693 0.970505 47.8398 2.16797 47.8398H8.67188V52.1758H2.16797C0.970505 52.1758 0 53.1463 0 54.3438C0 55.5412 0.970505 56.5117 2.16797 56.5117H8.67188V60.2695C8.67188 63.0591 10.9409 65.3281 13.7305 65.3281H17.4883V71.832C17.4883 73.0295 18.4588 74 19.6562 74C20.8537 74 21.8242 73.0295 21.8242 71.832V65.3281H26.1602V71.832C26.1602 73.0295 27.1307 74 28.3281 74C29.5256 74 30.4961 73.0295 30.4961 71.832V65.3281H34.832V71.832C34.832 73.0295 35.8025 74 37 74C38.1975 74 39.168 73.0295 39.168 71.832V65.3281H43.5039V71.832C43.5039 73.0295 44.4744 74 45.6719 74C46.8693 74 47.8398 73.0295 47.8398 71.832V65.3281H52.1758V71.832C52.1758 73.0295 53.1463 74 54.3438 74C55.5412 74 56.5117 73.0295 56.5117 71.832V65.3281H60.2695C63.0591 65.3281 65.3281 63.0591 65.3281 60.2695V56.5117H71.832C73.0295 56.5117 74 55.5412 74 54.3438C74 53.1463 73.0295 52.1758 71.832 52.1758H65.3281V47.8398H71.832C73.0295 47.8398 74 46.8693 74 45.6719C74 44.4744 73.0295 43.5039 71.832 43.5039H65.3281V39.168H71.832C73.0295 39.168 74 38.1975 74 37C74 35.8025 73.0295 34.832 71.832 34.832H65.3281V30.4961H71.832ZM56.6562 54.4883C56.6562 55.6857 55.6857 56.6562 54.4883 56.6562H19.5117C18.3143 56.6562 17.3438 55.6857 17.3438 54.4883V19.5117C17.3438 18.3143 18.3143 17.3438 19.5117 17.3438H54.4883C55.6857 17.3438 56.6562 18.3143 56.6562 19.5117V54.4883Z" fill="white"/>
</svg>
