<svg width="72" height="77" viewBox="0 0 72 77" fill="none" xmlns="http://www.w3.org/2000/svg">
<path d="M36 0C30.1929 0 25.4684 4.72451 25.4684 10.5317C25.4684 11.0604 25.5086 11.5796 25.5842 12.0876H30.1604C30.0279 11.591 29.9564 11.0696 29.9564 10.5317C29.9564 7.19908 32.6676 4.48784 36.0002 4.48784C39.3328 4.48784 42.0439 7.19908 42.0439 10.5317C42.0439 11.0696 41.9722 11.5909 41.8399 12.0876H46.4161C46.4916 11.5797 46.5319 11.0604 46.5319 10.5317C46.5314 4.72451 41.8071 0 36 0Z" fill="white"/>
<path d="M71.7884 59.9948L66.1571 28.1204C64.9916 21.523 59.2831 16.7346 52.5837 16.7346H19.4164C12.717 16.7346 7.00847 21.523 5.84282 28.1204L0.211601 59.9948C-0.499131 64.0183 0.59926 68.1208 3.22483 71.2511C5.85054 74.3814 9.69951 76.1766 13.7853 76.1766H58.215C62.3008 76.1766 66.1498 74.3813 68.7754 71.2512C71.4011 68.121 72.499 64.0183 71.7884 59.9948ZM34.1924 55.4392C33.7566 55.8607 33.1939 56.0705 32.6321 56.0706C32.0453 56.0706 31.4596 55.842 31.0192 55.387L24.7309 48.8889V53.8266C24.7309 55.0659 23.7262 56.0706 22.4869 56.0706C21.2476 56.0706 20.2429 55.0659 20.2429 53.8266V39.0846C20.2429 37.8453 21.2476 36.8406 22.4869 36.8406C23.7262 36.8406 24.7309 37.8453 24.7309 39.0846V44.0223L31.0192 37.5242C31.8811 36.6336 33.3015 36.6103 34.1924 37.4721C35.0829 38.3339 35.1061 39.7544 34.2445 40.645L28.6216 46.4556L34.2445 52.2662C35.1062 53.1567 35.0829 54.5773 34.1924 55.4392ZM44.5735 56.0706C40.6121 56.0706 37.3893 52.8477 37.3893 48.8864V44.0251C37.3893 40.0638 40.6121 36.8409 44.5735 36.8409C46.8017 36.8409 48.8665 37.849 50.239 39.6069C51.0017 40.5837 50.828 41.994 49.8509 42.7564C48.8738 43.5191 47.4638 43.3453 46.7012 42.3685C46.1854 41.7078 45.4098 41.3286 44.5733 41.3286C43.0865 41.3286 41.877 42.5382 41.877 44.025V48.8861C41.877 50.3729 43.0865 51.5825 44.5733 51.5825C45.9076 51.5825 47.019 50.608 47.2326 49.3333H46.1452C44.9059 49.3333 43.9012 48.3286 43.9012 47.0893C43.9012 45.85 44.9059 44.8453 46.1452 44.8453H49.5136C50.7529 44.8453 51.7576 45.85 51.7576 47.0893V48.8861H51.7577C51.7577 52.8477 48.5348 56.0706 44.5735 56.0706Z" fill="white"/>
</svg>
