<svg width="35" height="35" viewBox="0 0 35 35" fill="none" xmlns="http://www.w3.org/2000/svg">
<path d="M14.2871 5.3146C14.2871 3.42993 15.8204 1.89663 17.7051 1.89663H18.888L18.5312 0.904736C18.3305 0.346924 17.8049 0 17.2446 0C17.0893 0 16.9314 0.0266602 16.7771 0.0828516L4.82423 4.43331C4.11363 4.69198 3.74791 5.47832 4.00809 6.18837L4.63966 7.91226H14.2871V5.3146Z" fill="black"/>
<path d="M14.2871 5.3146C14.2871 3.42993 15.8204 1.89663 17.7051 1.89663H18.888L18.5312 0.904736C18.3305 0.346924 17.8049 0 17.2446 0C17.0893 0 16.9314 0.0266602 16.7771 0.0828516L4.82423 4.43331C4.11363 4.69198 3.74791 5.47832 4.00809 6.18837L4.63966 7.91226H14.2871V5.3146Z" fill="url(#paint0_linear_100_205)"/>
<path d="M17.7051 3.94727C16.95 3.94727 16.3379 4.55936 16.3379 5.31445V7.91211H28.3008V5.31445C28.3008 4.55936 27.6887 3.94727 26.9336 3.94727H17.7051Z" fill="black"/>
<path d="M17.7051 3.94727C16.95 3.94727 16.3379 4.55936 16.3379 5.31445V7.91211H28.3008V5.31445C28.3008 4.55936 27.6887 3.94727 26.9336 3.94727H17.7051Z" fill="url(#paint1_linear_100_205)"/>
<path d="M31.9238 27.6338H27.1387C24.3117 27.6338 22.0117 25.3338 22.0117 22.5068C22.0117 19.6798 24.3117 17.3799 27.1387 17.3799H31.9238V12.6973C31.9238 11.1871 30.6996 9.96289 29.1895 9.96289H2.73438C1.22425 9.96289 0 11.1871 0 12.6973V32.2655C0 33.7756 1.22425 34.9999 2.73438 34.9999H29.1895C30.6996 34.9999 31.9238 33.7756 31.9238 32.2655V27.6338Z" fill="black"/>
<path d="M31.9238 27.6338H27.1387C24.3117 27.6338 22.0117 25.3338 22.0117 22.5068C22.0117 19.6798 24.3117 17.3799 27.1387 17.3799H31.9238V12.6973C31.9238 11.1871 30.6996 9.96289 29.1895 9.96289H2.73438C1.22425 9.96289 0 11.1871 0 12.6973V32.2655C0 33.7756 1.22425 34.9999 2.73438 34.9999H29.1895C30.6996 34.9999 31.9238 33.7756 31.9238 32.2655V27.6338Z" fill="url(#paint2_linear_100_205)"/>
<path d="M33.9746 19.4307H27.1387C25.4425 19.4307 24.0625 20.8106 24.0625 22.5068C24.0625 24.203 25.4425 25.583 27.1387 25.583H33.9746C34.54 25.583 35 25.123 35 24.5576V20.4561C35 19.8907 34.54 19.4307 33.9746 19.4307ZM27.1387 23.5322C26.5724 23.5322 26.1133 23.0731 26.1133 22.5068C26.1133 21.9405 26.5724 21.4814 27.1387 21.4814C27.705 21.4814 28.1641 21.9405 28.1641 22.5068C28.1641 23.0731 27.705 23.5322 27.1387 23.5322Z" fill="black"/>
<path d="M33.9746 19.4307H27.1387C25.4425 19.4307 24.0625 20.8106 24.0625 22.5068C24.0625 24.203 25.4425 25.583 27.1387 25.583H33.9746C34.54 25.583 35 25.123 35 24.5576V20.4561C35 19.8907 34.54 19.4307 33.9746 19.4307ZM27.1387 23.5322C26.5724 23.5322 26.1133 23.0731 26.1133 22.5068C26.1133 21.9405 26.5724 21.4814 27.1387 21.4814C27.705 21.4814 28.1641 21.9405 28.1641 22.5068C28.1641 23.0731 27.705 23.5322 27.1387 23.5322Z" fill="url(#paint3_linear_100_205)"/>
<defs>
<linearGradient id="paint0_linear_100_205" x1="3.92426" y1="0" x2="10.4634" y2="12.3669" gradientUnits="userSpaceOnUse">
<stop stop-color="#5CD2BA"/>
<stop offset="1" stop-color="#0A6DBA"/>
</linearGradient>
<linearGradient id="paint1_linear_100_205" x1="16.3379" y1="3.94727" x2="18.7059" y2="11.0921" gradientUnits="userSpaceOnUse">
<stop stop-color="#5CD2BA"/>
<stop offset="1" stop-color="#0A6DBA"/>
</linearGradient>
<linearGradient id="paint2_linear_100_205" x1="0" y1="9.96289" x2="24.3155" y2="40.9668" gradientUnits="userSpaceOnUse">
<stop stop-color="#5CD2BA"/>
<stop offset="1" stop-color="#0A6DBA"/>
</linearGradient>
<linearGradient id="paint3_linear_100_205" x1="24.0625" y1="19.4307" x2="29.3203" y2="28.7778" gradientUnits="userSpaceOnUse">
<stop stop-color="#5CD2BA"/>
<stop offset="1" stop-color="#0A6DBA"/>
</linearGradient>
</defs>
</svg>
