<svg width="27" height="35" viewBox="0 0 27 35" fill="none" xmlns="http://www.w3.org/2000/svg">
<path d="M13.3301 10.3223C9.37271 10.3223 6.15234 13.5426 6.15234 17.5C6.15234 21.4574 9.37271 24.6777 13.3301 24.6777C17.2874 24.6777 20.5078 21.4574 20.5078 17.5C20.5078 13.5426 17.2874 10.3223 13.3301 10.3223ZM18.1566 16.1742L13.0297 21.3012C12.8294 21.5014 12.5669 21.6016 12.3047 21.6016C12.0425 21.6016 11.78 21.5014 11.5797 21.3012L8.50353 18.225C8.10299 17.8244 8.10299 17.1756 8.50353 16.775C8.90408 16.3745 9.55296 16.3745 9.9535 16.775L12.3047 19.1262L16.7067 14.7242C17.1072 14.3237 17.7561 14.3237 18.1566 14.7242C18.5572 15.1248 18.5572 15.7737 18.1566 16.1742Z" fill="black"/>
<path d="M13.3301 10.3223C9.37271 10.3223 6.15234 13.5426 6.15234 17.5C6.15234 21.4574 9.37271 24.6777 13.3301 24.6777C17.2874 24.6777 20.5078 21.4574 20.5078 17.5C20.5078 13.5426 17.2874 10.3223 13.3301 10.3223ZM18.1566 16.1742L13.0297 21.3012C12.8294 21.5014 12.5669 21.6016 12.3047 21.6016C12.0425 21.6016 11.78 21.5014 11.5797 21.3012L8.50353 18.225C8.10299 17.8244 8.10299 17.1756 8.50353 16.775C8.90408 16.3745 9.55296 16.3745 9.9535 16.775L12.3047 19.1262L16.7067 14.7242C17.1072 14.3237 17.7561 14.3237 18.1566 14.7242C18.5572 15.1248 18.5572 15.7737 18.1566 16.1742Z" fill="url(#paint0_linear_100_216)"/>
<path d="M25.6348 4.16992H23.2326C19.7657 4.16992 16.5064 2.75173 14.0551 0.300407C13.6545 -0.100136 13.0056 -0.100136 12.6051 0.300407C10.1538 2.75173 6.89442 4.16992 3.42758 4.16992H1.02539C0.458488 4.16992 0 4.62841 0 5.19531V17.5C0 26.7144 6.70509 31.0004 11.142 33.7912C11.5477 34.0456 12.8983 35 13.3301 35C13.7608 35 15.0756 34.0702 15.4799 33.8163C19.9321 31.0237 26.6602 26.7333 26.6602 17.5V5.19531C26.6602 4.62841 26.2014 4.16992 25.6348 4.16992ZM13.3301 26.7285C8.24104 26.7285 4.10156 22.5888 4.10156 17.5C4.10156 12.411 8.24104 8.27148 13.3301 8.27148C18.4188 8.27148 22.5586 12.411 22.5586 17.5C22.5586 22.5888 18.4188 26.7285 13.3301 26.7285Z" fill="black"/>
<path d="M25.6348 4.16992H23.2326C19.7657 4.16992 16.5064 2.75173 14.0551 0.300407C13.6545 -0.100136 13.0056 -0.100136 12.6051 0.300407C10.1538 2.75173 6.89442 4.16992 3.42758 4.16992H1.02539C0.458488 4.16992 0 4.62841 0 5.19531V17.5C0 26.7144 6.70509 31.0004 11.142 33.7912C11.5477 34.0456 12.8983 35 13.3301 35C13.7608 35 15.0756 34.0702 15.4799 33.8163C19.9321 31.0237 26.6602 26.7333 26.6602 17.5V5.19531C26.6602 4.62841 26.2014 4.16992 25.6348 4.16992ZM13.3301 26.7285C8.24104 26.7285 4.10156 22.5888 4.10156 17.5C4.10156 12.411 8.24104 8.27148 13.3301 8.27148C18.4188 8.27148 22.5586 12.411 22.5586 17.5C22.5586 22.5888 18.4188 26.7285 13.3301 26.7285Z" fill="url(#paint1_linear_100_216)"/>
<defs>
<linearGradient id="paint0_linear_100_216" x1="6.15234" y1="10.3223" x2="20.5078" y2="24.6777" gradientUnits="userSpaceOnUse">
<stop stop-color="#5CD2BA"/>
<stop offset="1" stop-color="#0A6DBA"/>
</linearGradient>
<linearGradient id="paint1_linear_100_216" x1="0" y1="0" x2="33.7424" y2="25.7022" gradientUnits="userSpaceOnUse">
<stop stop-color="#5CD2BA"/>
<stop offset="1" stop-color="#0A6DBA"/>
</linearGradient>
</defs>
</svg>
