<svg width="55" height="35" viewBox="0 0 55 35" fill="none" xmlns="http://www.w3.org/2000/svg">
<path d="M32.3501 0H3.22266C1.44278 0 0 1.43415 0 3.20337V20.1182H4.0541C4.9688 20.1182 5.70625 20.876 5.66371 21.7957C5.62375 22.6578 4.87695 23.3216 4.00877 23.3216H0V26.3904C0 28.1596 1.44278 29.5938 3.22266 29.5938H4.42578C5.15625 26.4993 7.95674 24.1876 11.29 24.1876C14.6233 24.1876 17.4238 26.4993 18.1543 29.5938H35.5728V3.20337C35.5728 1.43415 34.13 0 32.3501 0ZM24.5996 12.1877L16.5021 19.7424C15.8369 20.361 14.7855 20.3106 14.1861 19.6281L10.8625 15.8513C10.2771 15.1861 10.3447 14.1738 11.015 13.5919C11.6843 13.0089 12.7026 13.0761 13.2881 13.7424C13.8649 14.3974 13.4232 13.8957 15.5139 16.271C20.9352 11.2131 19.226 12.8075 22.3942 9.85249C23.0431 9.24706 24.0625 9.27909 24.6716 9.92403C25.2807 10.569 25.2484 11.5823 24.5996 12.1877Z" fill="black"/>
<path d="M32.3501 0H3.22266C1.44278 0 0 1.43415 0 3.20337V20.1182H4.0541C4.9688 20.1182 5.70625 20.876 5.66371 21.7957C5.62375 22.6578 4.87695 23.3216 4.00877 23.3216H0V26.3904C0 28.1596 1.44278 29.5938 3.22266 29.5938H4.42578C5.15625 26.4993 7.95674 24.1876 11.29 24.1876C14.6233 24.1876 17.4238 26.4993 18.1543 29.5938H35.5728V3.20337C35.5728 1.43415 34.13 0 32.3501 0ZM24.5996 12.1877L16.5021 19.7424C15.8369 20.361 14.7855 20.3106 14.1861 19.6281L10.8625 15.8513C10.2771 15.1861 10.3447 14.1738 11.015 13.5919C11.6843 13.0089 12.7026 13.0761 13.2881 13.7424C13.8649 14.3974 13.4232 13.8957 15.5139 16.271C20.9352 11.2131 19.226 12.8075 22.3942 9.85249C23.0431 9.24706 24.0625 9.27909 24.6716 9.92403C25.2807 10.569 25.2484 11.5823 24.5996 12.1877Z" fill="url(#paint0_linear_100_210)"/>
<path d="M11.2903 34.9997C13.4042 34.9997 15.1178 33.2963 15.1178 31.1952C15.1178 29.094 13.4042 27.3906 11.2903 27.3906C9.17649 27.3906 7.46289 29.094 7.46289 31.1952C7.46289 33.2963 9.17649 34.9997 11.2903 34.9997Z" fill="black"/>
<path d="M11.2903 34.9997C13.4042 34.9997 15.1178 33.2963 15.1178 31.1952C15.1178 29.094 13.4042 27.3906 11.2903 27.3906C9.17649 27.3906 7.46289 29.094 7.46289 31.1952C7.46289 33.2963 9.17649 34.9997 11.2903 34.9997Z" fill="url(#paint1_linear_100_210)"/>
<path d="M48.5069 8.46629C48.1601 7.02467 46.8638 6.00781 45.3725 6.00781H38.7954V14.5779H49.977L48.5069 8.46629Z" fill="black"/>
<path d="M48.5069 8.46629C48.1601 7.02467 46.8638 6.00781 45.3725 6.00781H38.7954V14.5779H49.977L48.5069 8.46629Z" fill="url(#paint2_linear_100_210)"/>
<path d="M51.7773 17.7812H38.7954V27.3358C42.2093 22.2139 50.1336 23.6319 51.541 29.5942H54.1943C54.638 29.5942 55 29.2354 55 28.7934V20.9846C55 19.2154 53.5572 17.7812 51.7773 17.7812Z" fill="black"/>
<path d="M51.7773 17.7812H38.7954V27.3358C42.2093 22.2139 50.1336 23.6319 51.541 29.5942H54.1943C54.638 29.5942 55 29.2354 55 28.7934V20.9846C55 19.2154 53.5572 17.7812 51.7773 17.7812Z" fill="url(#paint3_linear_100_210)"/>
<path d="M44.6771 34.9997C46.7909 34.9997 48.5045 33.2963 48.5045 31.1952C48.5045 29.094 46.7909 27.3906 44.6771 27.3906C42.5632 27.3906 40.8496 29.094 40.8496 31.1952C40.8496 33.2963 42.5632 34.9997 44.6771 34.9997Z" fill="black"/>
<path d="M44.6771 34.9997C46.7909 34.9997 48.5045 33.2963 48.5045 31.1952C48.5045 29.094 46.7909 27.3906 44.6771 27.3906C42.5632 27.3906 40.8496 29.094 40.8496 31.1952C40.8496 33.2963 42.5632 34.9997 44.6771 34.9997Z" fill="url(#paint4_linear_100_210)"/>
<defs>
<linearGradient id="paint0_linear_100_210" x1="0" y1="0" x2="29.0997" y2="34.9789" gradientUnits="userSpaceOnUse">
<stop stop-color="#5CD2BA"/>
<stop offset="1" stop-color="#0A6DBA"/>
</linearGradient>
<linearGradient id="paint1_linear_100_210" x1="7.46289" y1="27.3906" x2="15.0718" y2="35.0454" gradientUnits="userSpaceOnUse">
<stop stop-color="#5CD2BA"/>
<stop offset="1" stop-color="#0A6DBA"/>
</linearGradient>
<linearGradient id="paint2_linear_100_210" x1="38.7954" y1="6.00781" x2="47.071" y2="16.8051" gradientUnits="userSpaceOnUse">
<stop stop-color="#5CD2BA"/>
<stop offset="1" stop-color="#0A6DBA"/>
</linearGradient>
<linearGradient id="paint3_linear_100_210" x1="38.7954" y1="17.7812" x2="50.0418" y2="33.2087" gradientUnits="userSpaceOnUse">
<stop stop-color="#5CD2BA"/>
<stop offset="1" stop-color="#0A6DBA"/>
</linearGradient>
<linearGradient id="paint4_linear_100_210" x1="40.8496" y1="27.3906" x2="48.4585" y2="35.0454" gradientUnits="userSpaceOnUse">
<stop stop-color="#5CD2BA"/>
<stop offset="1" stop-color="#0A6DBA"/>
</linearGradient>
</defs>
</svg>
