<svg width="33" height="30" viewBox="0 0 33 30" fill="none" xmlns="http://www.w3.org/2000/svg">
<path d="M31.9502 14.5415H26.9502C24.7449 14.5415 22.9502 16.3362 22.9502 18.5415C22.9502 20.7468 24.7449 22.5415 26.9502 22.5415H31.9502C32.5022 22.5415 32.9502 22.0935 32.9502 21.5415V15.5415C32.9502 14.9895 32.5022 14.5415 31.9502 14.5415ZM26.9502 19.8748C26.2142 19.8748 25.6169 19.2775 25.6169 18.5415C25.6169 17.8055 26.2142 17.2082 26.9502 17.2082C27.6862 17.2082 28.2835 17.8055 28.2835 18.5415C28.2835 19.2775 27.6862 19.8748 26.9502 19.8748Z" fill="white"/>
<path d="M23.9769 5.88677L21.1462 1.03744C21.0115 0.806773 20.7902 0.638773 20.5315 0.572106C20.2742 0.508106 19.9982 0.545439 19.7689 0.682773L11.1155 5.87477L23.9769 5.88677Z" fill="white"/>
<path d="M4.9502 7.20809C4.21686 7.20809 3.61686 6.60809 3.61686 5.87476C3.61686 5.14142 4.21686 4.54142 4.9502 4.54142H9.44353L13.8969 1.87476H4.9502C2.97686 1.87476 1.33686 3.31476 1.01686 5.20809C0.990195 5.31476 0.950195 5.42142 0.950195 5.54142V25.8748C0.950195 28.0748 2.7502 29.8748 4.9502 29.8748H27.6169C29.0835 29.8748 30.2835 28.6748 30.2835 27.2081V24.5414H26.9502C23.6435 24.5414 20.9502 21.8481 20.9502 18.5414C20.9502 15.2348 23.6435 12.5414 26.9502 12.5414H30.2835V9.87476C30.2835 8.40809 29.0835 7.20809 27.6169 7.20809H4.9502ZM26.2835 4.54142C26.2835 3.19476 25.2835 2.07476 23.9769 1.90142L26.2835 5.87476V4.54142Z" fill="white"/>
</svg>
