<svg width="31" height="30" viewBox="0 0 31 30" fill="none" xmlns="http://www.w3.org/2000/svg">
<path d="M30.9654 13.4609C30.8609 12.7893 30.5425 12.1693 30.0574 11.6932C29.5723 11.217 28.9466 10.9101 28.2731 10.8181H19.8549C19.7672 10.8176 19.6809 10.7962 19.6031 10.7557C19.5254 10.7152 19.4584 10.6567 19.4078 10.5851C19.3572 10.5135 19.3244 10.4308 19.3121 10.344C19.2999 10.2571 19.3085 10.1686 19.3374 10.0858C19.6428 9.26668 19.8858 8.42557 20.0641 7.56971C20.8567 4.587 20.5057 2.07491 17.8507 0.379249C17.4639 0.139269 17.0194 0.00836081 16.5643 0.000387344C16.1091 -0.00758612 15.6603 0.107672 15.2654 0.333957C14.8704 0.560241 14.544 0.889127 14.3207 1.28579C14.0974 1.68245 13.9855 2.13211 13.9969 2.58717C14.0047 3.79942 14.2831 5.74913 13.7876 6.8705C13.0151 8.94028 12.022 10.9209 10.8255 12.7781L10.2254 13.4223C10.6241 13.9936 10.8357 14.6746 10.831 15.3713V26.8177C10.8298 27.457 10.6526 28.0837 10.319 28.6291C10.954 28.979 11.6643 29.1698 12.3891 29.1851H25.3C25.9836 29.1987 26.6519 28.9817 27.1972 28.5693C27.7425 28.1568 28.1331 27.5728 28.3062 26.9113C28.4562 26.1984 28.3261 25.4551 27.9428 24.8356C28.6168 24.5516 29.1538 24.0165 29.4403 23.3436C29.6048 22.9454 29.6769 22.5151 29.6511 22.085C29.6254 21.6549 29.5025 21.2363 29.2917 20.8605C29.9737 20.5733 30.5155 20.0295 30.8002 19.3465C31.0004 18.8036 31.0372 18.214 30.9061 17.6504C30.775 17.0868 30.4817 16.574 30.0625 16.1752C30.4154 15.8254 30.6811 15.3974 30.838 14.9258C30.9948 14.4543 31.0385 13.9524 30.9654 13.4609Z" fill="white"/>
<path d="M7.37348 13.0093H0.717075C0.571189 13.0097 0.431402 13.0679 0.328244 13.171C0.225086 13.2742 0.16694 13.414 0.166504 13.5598V28.629C0.16694 28.7749 0.225086 28.9147 0.328244 29.0178C0.431402 29.121 0.571189 29.1791 0.717075 29.1796H7.37348C7.79063 29.1791 8.20014 29.0676 8.56005 28.8567C8.91995 28.6458 9.2173 28.343 9.42161 27.9793C9.62542 27.6262 9.73182 27.2253 9.72992 26.8176V15.3712C9.72986 14.7457 9.48174 14.1459 9.04 13.7031C8.59825 13.2603 7.99893 13.0108 7.37348 13.0093Z" fill="white"/>
<path d="M23.5658 4.12313C24.2226 4.12412 24.8522 4.38547 25.3166 4.84989C25.781 5.31431 26.0424 5.94391 26.0434 6.6007C26.0455 6.74531 26.1045 6.88326 26.2075 6.98477C26.3105 7.08627 26.4493 7.14317 26.5939 7.14317C26.7386 7.14317 26.8774 7.08627 26.9804 6.98477C27.0834 6.88326 27.1424 6.74531 27.1445 6.6007C27.1455 5.94391 27.4068 5.31431 27.8713 4.84989C28.3357 4.38547 28.9653 4.12412 29.6221 4.12313C29.7667 4.12099 29.9046 4.06204 30.0061 3.95902C30.1076 3.856 30.1645 3.71718 30.1645 3.57256C30.1645 3.42794 30.1076 3.28912 30.0061 3.1861C29.9046 3.08308 29.7667 3.02413 29.6221 3.02199C28.9653 3.021 28.3357 2.75965 27.8713 2.29523C27.4068 1.83081 27.1455 1.20121 27.1445 0.544418C27.1424 0.399812 27.0834 0.261855 26.9804 0.160353C26.8774 0.0588507 26.7386 0.00195312 26.5939 0.00195312C26.4493 0.00195312 26.3105 0.0588507 26.2075 0.160353C26.1045 0.261855 26.0455 0.399812 26.0434 0.544418C26.0424 1.20121 25.781 1.83081 25.3166 2.29523C24.8522 2.75965 24.2226 3.021 23.5658 3.02199C23.4212 3.02423 23.2834 3.08322 23.182 3.18623C23.0805 3.28924 23.0237 3.428 23.0237 3.57256C23.0237 3.71712 23.0805 3.85588 23.182 3.95889C23.2834 4.0619 23.4212 4.12089 23.5658 4.12313Z" fill="white"/>
<path d="M4.84637 4.12313C5.50316 4.12412 6.13276 4.38547 6.59718 4.84989C7.0616 5.31431 7.32295 5.94391 7.32394 6.6007C7.32608 6.74531 7.38503 6.88326 7.48805 6.98477C7.59107 7.08627 7.72989 7.14317 7.87451 7.14317C8.01913 7.14317 8.15795 7.08627 8.26097 6.98477C8.36399 6.88326 8.42294 6.74531 8.42508 6.6007C8.42607 5.94391 8.68742 5.31431 9.15184 4.84989C9.61626 4.38547 10.2459 4.12412 10.9027 4.12313C11.0473 4.12099 11.1852 4.06204 11.2867 3.95902C11.3882 3.856 11.4451 3.71718 11.4451 3.57256C11.4451 3.42794 11.3882 3.28912 11.2867 3.1861C11.1852 3.08308 11.0473 3.02413 10.9027 3.02199C10.2459 3.021 9.61626 2.75965 9.15184 2.29523C8.68742 1.83081 8.42607 1.20121 8.42508 0.544418C8.42294 0.399812 8.36399 0.261855 8.26097 0.160353C8.15795 0.0588507 8.01913 0.00195312 7.87451 0.00195312C7.72989 0.00195312 7.59107 0.0588507 7.48805 0.160353C7.38503 0.261855 7.32608 0.399812 7.32394 0.544418C7.32295 1.20121 7.0616 1.83081 6.59718 2.29523C6.13276 2.75965 5.50316 3.021 4.84637 3.02199C4.70182 3.02423 4.56396 3.08322 4.46253 3.18623C4.36111 3.28924 4.30426 3.428 4.30426 3.57256C4.30426 3.71712 4.36111 3.85588 4.46253 3.95889C4.56396 4.0619 4.70182 4.12089 4.84637 4.12313Z" fill="white"/>
</svg>
