<svg width="34" height="32" viewBox="0 0 34 32" fill="none" xmlns="http://www.w3.org/2000/svg">
<path fill-rule="evenodd" clip-rule="evenodd" d="M15.5104 0.179844L19.8164 2.67778L5.85591 10.7764V16.7775C5.85591 17.0173 5.97421 17.2232 6.18092 17.3431L9.41693 19.2203C9.52026 19.2803 9.63855 19.2803 9.74194 19.2203C9.84527 19.1604 9.90442 19.0574 9.90442 18.9375V13.125L23.8649 5.02637L28.1709 7.5243C28.5843 7.76409 28.8209 8.17589 28.8209 8.65548V16.1621C27.6519 15.7659 26.4149 15.5522 25.1794 15.4764V14.9732C25.1794 14.4249 24.8679 13.9332 24.3734 13.7012C23.8792 13.4693 23.3039 13.5449 22.8855 13.8966L17.9289 18.0649C17.5177 18.4107 17.2931 18.9149 17.3102 19.4533C17.3274 19.994 17.5819 20.4792 18.0159 20.7992L22.9558 24.4407C23.3824 24.7552 23.9418 24.8014 24.4138 24.5611C24.8862 24.3206 25.1795 23.841 25.1795 23.3089V22.7532C26.2076 22.8764 27.2254 23.194 28.0611 23.802C28.2232 23.9199 28.3769 24.0483 28.5199 24.1864C28.4243 24.299 28.3072 24.3967 28.1711 24.4757L15.5104 31.8202C15.097 32.0599 14.6238 32.0599 14.2104 31.8202L1.54993 24.4757C1.13649 24.2359 0.899902 23.8241 0.899902 23.3445V8.65554C0.899902 8.17589 1.13649 7.76409 1.54993 7.52437L14.2105 0.179844C14.6238 -0.0599481 15.097 -0.0599481 15.5104 0.179844ZM24.1149 21.6217C31.0669 21.6217 33.037 28.2933 27.3268 31.292C27.2954 31.3083 27.282 31.346 27.2964 31.3783C27.3099 31.4085 27.3417 31.4245 27.3735 31.4164C36.8608 29.0717 36.1975 16.5139 24.1149 16.5139V14.9732C24.1149 14.8403 24.0428 14.7266 23.923 14.6703C23.8032 14.6141 23.6702 14.6316 23.5687 14.7169L18.6121 18.8853C18.4501 19.0216 18.3674 19.207 18.3741 19.4193C18.3809 19.6315 18.4752 19.8113 18.6456 19.9369L23.5855 23.5784C23.6892 23.6548 23.818 23.6655 23.9326 23.6071C24.0472 23.5488 24.1149 23.438 24.1149 23.309V21.6217Z" fill="white"/>
</svg>
