<svg width="29" height="33" viewBox="0 0 29 33" fill="none" xmlns="http://www.w3.org/2000/svg">
<path d="M7.10205 25.2344H21.8977V32.4424H7.10205V25.2344Z" fill="white"/>
<path d="M17.9498 20.0195C16.8899 20.4726 15.7238 20.7238 14.5001 20.7238C13.2764 20.7238 12.1103 20.4726 11.0503 20.0195V23.3455H17.9498V20.0195Z" fill="white"/>
<path d="M4.24696 21.2455C1.50821 23.9842 0 27.6254 0 31.4985V32.4429H5.21333V20.3623C4.88041 20.6409 4.55757 20.9348 4.24696 21.2455Z" fill="white"/>
<path d="M9.16128 23.3459V18.9162C8.91428 18.7273 8.67742 18.5259 8.45191 18.3125C7.99055 18.5244 7.5399 18.7605 7.10205 19.0212V23.3459H9.16128Z" fill="white"/>
<path d="M29 31.4985C29 27.6254 27.4917 23.9842 24.753 21.2455C24.4424 20.9348 24.1195 20.6409 23.7866 20.3623V32.443H29V31.4985Z" fill="white"/>
<path d="M19.8389 23.3459H21.8981V19.0212C21.4602 18.7606 21.0096 18.5244 20.5482 18.3125C20.3227 18.5259 20.0859 18.7273 19.8389 18.9162V23.3459Z" fill="white"/>
<path d="M21.468 11.918V11.2891H7.53174V11.918C7.53174 15.7603 10.6576 18.8862 14.4999 18.8862C18.3421 18.8862 21.468 15.7603 21.468 11.918Z" fill="white"/>
<path d="M5.92377 9.38849H23.0763C23.0763 9.38849 23.0753 8.48409 23.0745 8.43802C23.0004 3.77261 19.1828 0 14.5001 0C9.81727 0 5.99974 3.77261 5.92554 8.43802C5.92484 8.48403 5.92377 9.38849 5.92377 9.38849Z" fill="white"/>
</svg>
