<svg width="22" height="22" viewBox="0 0 22 22" fill="none" xmlns="http://www.w3.org/2000/svg">
<path fill-rule="evenodd" clip-rule="evenodd" d="M3 0C1.34315 0 0 1.34315 0 3V19C0 20.6569 1.34315 22 3 22H19C20.6569 22 22 20.6569 22 19V3C22 1.34315 20.6569 0 19 0H3ZM17.2311 7.68232C17.6079 7.27857 17.5861 6.64578 17.1823 6.26894C16.7786 5.89211 16.1458 5.91393 15.7689 6.31768L9.4752 13.061L6.70711 10.2929C6.31658 9.90237 5.68342 9.90237 5.29289 10.2929C4.90237 10.6834 4.90237 11.3166 5.29289 11.7071L8.79289 15.2071C8.98466 15.3989 9.24608 15.5045 9.51723 15.4999C9.78839 15.4952 10.046 15.3806 10.2311 15.1823L17.2311 7.68232Z" fill="#D9D9D9"/>
<path fill-rule="evenodd" clip-rule="evenodd" d="M3 0C1.34315 0 0 1.34315 0 3V19C0 20.6569 1.34315 22 3 22H19C20.6569 22 22 20.6569 22 19V3C22 1.34315 20.6569 0 19 0H3ZM17.2311 7.68232C17.6079 7.27857 17.5861 6.64578 17.1823 6.26894C16.7786 5.89211 16.1458 5.91393 15.7689 6.31768L9.4752 13.061L6.70711 10.2929C6.31658 9.90237 5.68342 9.90237 5.29289 10.2929C4.90237 10.6834 4.90237 11.3166 5.29289 11.7071L8.79289 15.2071C8.98466 15.3989 9.24608 15.5045 9.51723 15.4999C9.78839 15.4952 10.046 15.3806 10.2311 15.1823L17.2311 7.68232Z" fill="white"/>
</svg>
