<svg width="26" height="32" viewBox="0 0 26 32" fill="none" xmlns="http://www.w3.org/2000/svg">
<path d="M12.8034 15.0117C14.8657 15.0117 16.6515 14.272 18.1107 12.8126C19.5698 11.3535 20.3095 9.56817 20.3095 7.50561C20.3095 5.44375 19.5698 3.65817 18.1104 2.19857C16.6511 0.739671 14.8655 0 12.8034 0C10.7408 0 8.95548 0.739671 7.49634 2.1988C6.03721 3.65794 5.2973 5.44351 5.2973 7.50561C5.2973 9.56817 6.03721 11.3538 7.49658 12.8129C8.95595 14.2718 10.7415 15.0117 12.8034 15.0117Z" fill="#CCCCCC"/>
<path d="M25.937 23.9638C25.8949 23.3565 25.8098 22.6941 25.6845 21.9946C25.558 21.2899 25.3951 20.6237 25.2002 20.0148C24.9988 19.3855 24.7249 18.764 24.3863 18.1684C24.0349 17.5502 23.6222 17.0119 23.159 16.569C22.6747 16.1056 22.0817 15.733 21.396 15.4612C20.7127 15.1909 19.9554 15.0539 19.1454 15.0539C18.8273 15.0539 18.5196 15.1845 17.9254 15.5713C17.5598 15.8098 17.132 16.0856 16.6546 16.3906C16.2464 16.6507 15.6933 16.8944 15.0103 17.1151C14.3438 17.3307 13.6672 17.4401 12.9993 17.4401C12.3314 17.4401 11.655 17.3307 10.9878 17.1151C10.3055 16.8947 9.75244 16.651 9.34468 16.3909C8.87177 16.0887 8.44381 15.8129 8.07266 15.5711C7.47921 15.1842 7.17132 15.0537 6.85319 15.0537C6.04291 15.0537 5.28588 15.1909 4.60279 15.4615C3.91757 15.7328 3.32436 16.1053 2.83957 16.5692C2.37665 17.0124 1.96366 17.5504 1.61273 18.1684C1.27439 18.764 1.00049 19.3852 0.798873 20.015C0.604148 20.624 0.441282 21.2899 0.314794 21.9946C0.189495 22.6932 0.104377 23.3558 0.0622931 23.9645C0.0209229 24.5608 0 25.1797 0 25.8047C0 27.4315 0.517128 28.7484 1.53688 29.7197C2.54403 30.6781 3.87668 31.1643 5.49725 31.1643H20.5028C22.1233 31.1643 23.4555 30.6783 24.4629 29.7197C25.4829 28.7492 26 27.432 26 25.8045C25.9998 25.1766 25.9786 24.5572 25.937 23.9638Z" fill="#CCCCCC"/>
</svg>
