<svg width="26" height="26" viewBox="0 0 26 26" fill="none" xmlns="http://www.w3.org/2000/svg">
<path d="M25.9486 20.4638C25.7854 19.6892 25.2742 18.9958 24.5401 18.5625C23.1806 17.7662 21.7721 16.997 20.4126 16.2548L19.4827 15.7456C18.2972 15.101 17.487 15.2202 17.0138 15.4369C16.5625 15.6427 15.9697 16.1356 15.7141 17.322C15.7087 17.3382 15.7033 17.3599 15.7033 17.3815C15.6217 17.6903 15.3933 17.8149 15.2628 17.8637C14.9637 17.9666 14.6102 17.8962 14.3166 17.6687C12.0489 15.8919 10.0858 13.9418 8.31297 11.7154C8.08458 11.4337 8.01388 11.087 8.12262 10.7891C8.17157 10.6536 8.30753 10.4099 8.6882 10.3286C8.70449 10.3232 8.72626 10.3232 8.74256 10.3178C9.94983 10.0524 10.4284 9.43482 10.6241 8.96355C10.8362 8.43269 10.9069 7.52264 10.0314 6.2117C9.37339 5.23123 8.82415 4.15868 8.2912 3.11862C8.04651 2.64735 7.80723 2.17607 7.55707 1.71018C7.05678 0.789288 6.38788 0.215088 5.62657 0.0471621C4.93593 -0.0990742 4.20725 0.0959296 3.51661 0.615973C2.83141 1.13598 2.10814 1.71018 1.42297 2.37107C-0.050752 3.80117 -0.387908 5.61043 0.449539 7.59845C4.0006 16.0652 10.1184 22.116 18.6398 25.5883C19.3032 25.8646 19.9558 26 20.5758 26C21.696 26 22.7238 25.5558 23.6156 24.6783C24.3389 23.9686 24.9752 23.1507 25.519 22.4302C25.9377 21.8614 26.09 21.1626 25.9486 20.4638Z" fill="#CCCCCC"/>
</svg>
