<svg width="40" height="40" viewBox="0 0 40 40" fill="none" xmlns="http://www.w3.org/2000/svg">
<path d="M19.9967 1.17501e-08C8.96225 0.000406056 -0.000355325 8.96766 1.05655e-08 20.0007C-0.000355325 31.0336 8.96225 39.9996 19.9967 40C31.0317 40.0004 40.0004 31.0342 40 20.0007C40.0004 8.96711 31.0317 -0.000374818 19.9967 1.17501e-08ZM19.998 7.33484C20.83 7.33473 21.6538 7.4985 22.4225 7.81678C23.1911 8.13507 23.8895 8.60164 24.4778 9.18985C25.0661 9.77805 25.5327 10.4764 25.8511 11.2449C26.1694 12.0135 26.3332 12.8372 26.3331 13.6691C26.333 14.5008 26.1691 15.3244 25.8507 16.0928C25.5323 16.8612 25.0656 17.5594 24.4774 18.1474C23.8891 18.7355 23.1907 19.2019 22.4222 19.5202C21.6536 19.8384 20.8299 20.0021 19.998 20.002C18.3183 20.0018 16.7073 19.3346 15.5195 18.1469C14.3318 16.9593 13.6644 15.3486 13.6643 13.6691C13.6642 12.8373 13.8279 12.0137 14.1462 11.2452C14.4644 10.4768 14.9309 9.77851 15.5191 9.19032C16.1072 8.60213 16.8055 8.13553 17.574 7.81717C18.3425 7.49881 19.1662 7.33491 19.998 7.33484ZM13.7063 26.1513H26.2885C29.669 26.1513 32.39 28.8733 32.39 32.2534V32.8829C29.0585 36.1008 24.6432 37.9689 20.002 37.9883C15.3577 37.971 10.9423 36.1027 7.60861 32.8829V32.2534C7.60854 28.8733 10.3258 26.1513 13.7063 26.1513Z" fill="url(#paint0_linear_100_134)"/>
<path d="M19.9967 1.17501e-08C8.96225 0.000406056 -0.000355325 8.96766 1.05655e-08 20.0007C-0.000355325 31.0336 8.96225 39.9996 19.9967 40C31.0317 40.0004 40.0004 31.0342 40 20.0007C40.0004 8.96711 31.0317 -0.000374818 19.9967 1.17501e-08ZM19.998 7.33484C20.83 7.33473 21.6538 7.4985 22.4225 7.81678C23.1911 8.13507 23.8895 8.60164 24.4778 9.18985C25.0661 9.77805 25.5327 10.4764 25.8511 11.2449C26.1694 12.0135 26.3332 12.8372 26.3331 13.6691C26.333 14.5008 26.1691 15.3244 25.8507 16.0928C25.5323 16.8612 25.0656 17.5594 24.4774 18.1474C23.8891 18.7355 23.1907 19.2019 22.4222 19.5202C21.6536 19.8384 20.8299 20.0021 19.998 20.002C18.3183 20.0018 16.7073 19.3346 15.5195 18.1469C14.3318 16.9593 13.6644 15.3486 13.6643 13.6691C13.6642 12.8373 13.8279 12.0137 14.1462 11.2452C14.4644 10.4768 14.9309 9.77851 15.5191 9.19032C16.1072 8.60213 16.8055 8.13553 17.574 7.81717C18.3425 7.49881 19.1662 7.33491 19.998 7.33484ZM13.7063 26.1513H26.2885C29.669 26.1513 32.39 28.8733 32.39 32.2534V32.8829C29.0585 36.1008 24.6432 37.9689 20.002 37.9883C15.3577 37.971 10.9423 36.1027 7.60861 32.8829V32.2534C7.60854 28.8733 10.3258 26.1513 13.7063 26.1513Z" fill="url(#paint1_linear_100_134)"/>
<defs>
<linearGradient id="paint0_linear_100_134" x1="2.40922" y1="39.1237" x2="40.6157" y2="2.7295" gradientUnits="userSpaceOnUse">
<stop stop-color="#0073E6"/>
<stop offset="1" stop-color="#7CF5FF"/>
</linearGradient>
<linearGradient id="paint1_linear_100_134" x1="0" y1="0" x2="40" y2="40" gradientUnits="userSpaceOnUse">
<stop stop-color="#5CD2BA"/>
<stop offset="1" stop-color="#0A6DBA"/>
</linearGradient>
</defs>
</svg>
