<svg width="27" height="25" viewBox="0 0 27 25" fill="none" xmlns="http://www.w3.org/2000/svg">
<path d="M24.8915 3H21V4.63967H24.8915C25.1543 4.63967 25.3668 4.85339 25.3668 5.11673V16.114C25.3668 18.4554 23.4726 20.3603 21.144 20.3603H21V22H21.144C24.3729 22 27 19.3595 27 16.114V5.11673C27 3.94983 26.0546 3 24.8915 3Z" fill="white"/>
<path d="M9 12H13V14H9V12Z" fill="white"/>
<path d="M25 16.6631V6H21V20H21.1686C23.2813 20 25 18.503 25 16.6631Z" fill="white"/>
<path d="M9 15H13V17H9V15Z" fill="white"/>
<path d="M11.0002 20C12.1031 20 13 19.1501 13 18.105V18H9V18.105C9 19.1501 9.89736 20 10.9998 20H11.0002Z" fill="white"/>
<path d="M9 9H13V11H9V9Z" fill="white"/>
<path d="M12.9996 6.89417C12.9996 5.84955 12.1022 5 10.9998 5C9.89736 5 9 5.84997 9 6.89417V7H13L12.9996 6.89417Z" fill="white"/>
<path d="M2.30138 4.21296V23.5886C2.30138 24.3666 2.94494 25 3.7355 25H18.5659C19.3564 25 20 24.3666 20 23.5886V22.7331C20 22.7331 19.999 22.7302 19.999 22.7283C19.999 22.7263 20 22.7254 20 22.7234V20.1024C20 20.1024 19.999 20.0995 19.999 20.0975C19.999 20.0956 20 20.0946 20 20.0927V5.12503C20 5.12503 19.999 5.12213 19.999 5.12019C19.999 5.11826 20 5.11729 20 5.11535V2.49429C20 2.49429 19.999 2.49139 19.999 2.48945C19.999 2.48752 20 2.48655 20 2.48461V1.41142C20 0.633371 19.3564 0 18.5659 0H0L2.23992 3.97732C2.28024 4.04893 2.30138 4.12973 2.30138 4.21199V4.21296ZM7.69567 14.6638C7.69567 14.6595 7.69813 14.6561 7.69813 14.6522V11.4433C7.69813 11.4389 7.69567 11.4355 7.69567 11.4316C7.69567 11.4278 7.69813 11.4239 7.69813 11.42V8.21108C7.69813 8.20672 7.69567 8.20334 7.69567 8.19947C7.69567 8.19559 7.69813 8.19172 7.69813 8.18785V7.59222C7.69813 5.84066 9.14553 4.41618 10.9253 4.41618C12.705 4.41618 14.1524 5.84114 14.1524 7.59222V18.5023C14.1524 20.2538 12.705 21.6783 10.9253 21.6783C9.14553 21.6783 7.69813 20.2533 7.69813 18.5023V17.9076C7.69813 17.9032 7.69567 17.8999 7.69567 17.896C7.69567 17.8921 7.69813 17.8882 7.69813 17.8844V14.6759C7.69813 14.6716 7.69567 14.6677 7.69567 14.6638Z" fill="white"/>
</svg>
