<svg width="24" height="25" viewBox="0 0 24 25" fill="none" xmlns="http://www.w3.org/2000/svg">
<path fill-rule="evenodd" clip-rule="evenodd" d="M1.74158 23.3226V21.9678H22.2577V23.3226H1.74158ZM16.0158 20.6613H7.98351C6.67706 20.6613 5.66093 19.5968 5.66093 18.2903V12.4355C5.66093 11.129 6.67706 10.1129 7.98351 10.1129H16.0158C17.3222 10.1129 18.3384 11.129 18.3384 12.4355V18.2903C18.3384 19.5968 17.3222 20.6613 16.0158 20.6613ZM7.98351 10.5968C6.96738 10.5968 6.09642 11.4194 6.09642 12.4355V18.2903C6.09642 19.3549 6.96738 20.1774 7.98351 20.1774H16.0158C17.0319 20.1774 17.9029 19.3549 17.9029 18.2903V12.4355C17.9029 11.4194 17.0319 10.5968 16.0158 10.5968H7.98351ZM16.0158 19.2097H7.98351C7.45125 19.2097 7.06416 18.8226 7.06416 18.2903V12.4355C7.06416 11.9516 7.45125 11.5161 7.98351 11.5161H16.0158C16.548 11.5161 16.9351 11.9516 16.9351 12.4355V18.2903C16.9351 18.8226 16.548 19.2097 16.0158 19.2097ZM7.98351 12C7.74158 12 7.54803 12.1936 7.54803 12.4355V18.2903C7.54803 18.5323 7.74158 18.7258 7.98351 18.7258H16.0158C16.2577 18.7258 16.4513 18.5323 16.4513 18.2903V12.4355C16.4513 12.1936 16.2577 12 16.0158 12H7.98351ZM1.74158 21.4839V6.67743H3.82222V8.56453C3.82222 8.95162 4.16093 9.24195 4.54803 9.24195H19.4513C19.8384 9.24195 20.1771 8.95162 20.1771 8.56453V6.67743H22.2577V21.4839H1.74158ZM16.3061 4.50001H14.2254C14.0803 4.50001 13.9835 4.40324 13.9835 4.25808V2.56453C13.9835 2.41937 14.0803 2.32259 14.2254 2.32259H16.3061C16.4513 2.32259 16.548 2.41937 16.548 2.56453V4.25808C16.548 4.40324 16.4513 4.50001 16.3061 4.50001ZM14.419 4.01614H16.1125V2.80646H14.419V4.01614ZM20.1771 4.50001H18.048C17.9513 4.50001 17.8061 4.40324 17.8061 4.25808V2.56453C17.8061 2.41937 17.9513 2.32259 18.048 2.32259H20.1771C20.3222 2.32259 20.419 2.41937 20.419 2.56453V4.25808C20.419 4.40324 20.3222 4.50001 20.1771 4.50001ZM18.29 4.01614H19.9351V2.80646H18.29V4.01614ZM5.95125 4.50001H3.82222C3.67706 4.50001 3.58029 4.40324 3.58029 4.25808V2.56453C3.58029 2.41937 3.67706 2.32259 3.82222 2.32259H5.95125C6.04803 2.32259 6.19319 2.41937 6.19319 2.56453V4.25808C6.19319 4.40324 6.04803 4.50001 5.95125 4.50001ZM4.06416 4.01614H5.70932V2.80646H4.06416V4.01614ZM1.74158 6.19356V1.35485C1.74158 1.20969 1.83835 1.11292 1.98351 1.11292H22.0158C22.1609 1.11292 22.2577 1.20969 22.2577 1.35485V6.19356H20.1287C20.0319 5.95162 19.7416 5.70969 19.4513 5.70969H4.54803C4.25771 5.70969 3.96738 5.95162 3.87061 6.19356H1.74158Z" fill="white"/>
<path fill-rule="evenodd" clip-rule="evenodd" d="M19.4518 8.80675H4.54858C4.40341 8.80675 4.30664 8.66159 4.30664 8.56482V6.43578C4.30664 6.33901 4.40341 6.19385 4.54858 6.19385H19.4518C19.597 6.19385 19.6937 6.33901 19.6937 6.43578V8.56482C19.6937 8.66159 19.597 8.80675 19.4518 8.80675Z" fill="white"/>
<path fill-rule="evenodd" clip-rule="evenodd" d="M7.98368 1.59677H3.43529C3.29013 1.59677 3.19336 1.45161 3.19336 1.35484V0.241935C3.19336 0.0967742 3.29013 0 3.43529 0H7.98368C8.12884 0 8.22562 0.0967742 8.22562 0.241935V1.35484C8.22562 1.45161 8.12884 1.59677 7.98368 1.59677Z" fill="white"/>
<path fill-rule="evenodd" clip-rule="evenodd" d="M20.5647 1.59677H16.0163C15.8711 1.59677 15.7744 1.45161 15.7744 1.35484V0.241935C15.7744 0.0967742 15.8711 0 16.0163 0H20.5647C20.7098 0 20.8066 0.0967742 20.8066 0.241935V1.35484C20.8066 1.45161 20.7098 1.59677 20.5647 1.59677Z" fill="white"/>
<path fill-rule="evenodd" clip-rule="evenodd" d="M23.5161 24.7744H0.483871C0.193548 24.7744 0 24.5808 0 24.2905C0 24.0486 0.193548 23.8066 0.483871 23.8066H23.5161C23.8065 23.8066 24 24.0486 24 24.2905C24 24.5808 23.8065 24.7744 23.5161 24.7744Z" fill="white"/>
</svg>
