<svg width="26" height="22" viewBox="0 0 26 22" fill="none" xmlns="http://www.w3.org/2000/svg">
<path d="M8.10151 18.92L6.34225 20.6793C6.04477 20.9768 6.04477 21.4591 6.34225 21.7565C6.49099 21.9053 6.68594 21.9797 6.88083 21.9797C7.07573 21.9797 7.27073 21.9053 7.41942 21.7565L10.2559 18.9201H8.10151V18.92Z" fill="white"/>
<path d="M15.744 18.9197L18.5805 21.7562C18.7292 21.9049 18.9241 21.9793 19.119 21.9793C19.3139 21.9793 19.5089 21.905 19.6576 21.7562C19.9551 21.4587 19.9551 20.9764 19.6576 20.6789L17.8984 18.9197L15.744 18.9197Z" fill="white"/>
<path d="M0 15.3527V16.6349C0 17.0556 0.341047 17.3966 0.761719 17.3966H25.2383C25.659 17.3966 26 17.0556 26 16.6349V15.3527H0Z" fill="white"/>
<path d="M26 13.829V0.761719C26 0.341047 25.659 0 25.2383 0H0.761719C0.341047 0 0 0.341047 0 0.761719V13.829H26Z" fill="white"/>
</svg>
