<svg width="20" height="24" viewBox="0 0 20 24" fill="none" xmlns="http://www.w3.org/2000/svg">
<path d="M0 23C0 23.2652 0.105357 23.5196 0.292893 23.7071C0.48043 23.8946 0.734784 24 1 24H19C19.2652 24 19.5196 23.8946 19.7071 23.7071C19.8946 23.5196 20 23.2652 20 23V21H0V23Z" fill="white"/>
<path d="M19 0H1C0.734784 0 0.48043 0.105357 0.292893 0.292893C0.105357 0.48043 0 0.734784 0 1V20H20V1C20 0.734784 19.8946 0.48043 19.7071 0.292893C19.5196 0.105357 19.2652 0 19 0ZM8 2C8.19778 2 8.39112 2.05865 8.55557 2.16853C8.72002 2.27841 8.84819 2.43459 8.92388 2.61732C8.99957 2.80004 9.01937 3.00111 8.98079 3.19509C8.9422 3.38907 8.84696 3.56725 8.70711 3.70711C8.56725 3.84696 8.38907 3.9422 8.19509 3.98079C8.00111 4.01937 7.80004 3.99957 7.61732 3.92388C7.43459 3.84819 7.27841 3.72002 7.16853 3.55557C7.05865 3.39112 7 3.19778 7 3C7 2.73478 7.10536 2.48043 7.29289 2.29289C7.48043 2.10536 7.73478 2 8 2ZM3 3C3 2.80222 3.05865 2.60888 3.16853 2.44443C3.27841 2.27998 3.43459 2.15181 3.61732 2.07612C3.80004 2.00043 4.00111 1.98063 4.19509 2.01921C4.38907 2.0578 4.56725 2.15304 4.70711 2.29289C4.84696 2.43275 4.9422 2.61093 4.98079 2.80491C5.01937 2.99889 4.99957 3.19996 4.92388 3.38268C4.84819 3.56541 4.72002 3.72159 4.55557 3.83147C4.39112 3.94135 4.19778 4 4 4C3.73478 4 3.48043 3.89464 3.29289 3.70711C3.10536 3.51957 3 3.26522 3 3ZM10 18C8.81331 18 7.65327 17.6481 6.66658 16.9888C5.67988 16.3295 4.91085 15.3925 4.45672 14.2961C4.0026 13.1997 3.88378 11.9933 4.11529 10.8295C4.3468 9.66557 4.91824 8.59647 5.75736 7.75736C6.59647 6.91824 7.66557 6.3468 8.82946 6.11529C9.99334 5.88378 11.1997 6.0026 12.2961 6.45672C13.3925 6.91085 14.3295 7.67988 14.9888 8.66658C15.6481 9.65327 16 10.8133 16 12C15.9982 13.5908 15.3655 15.1158 14.2407 16.2407C13.1158 17.3655 11.5908 17.9982 10 18ZM17 4H13V2H17V4Z" fill="white"/>
<path d="M13 9.60263C12.5108 8.93036 11.8283 8.43358 11.0493 8.18268C10.2704 7.93178 9.43438 7.9395 8.6599 8.20475C7.88542 8.46999 7.21173 8.97931 6.73432 9.66049C6.25691 10.3417 6 11.1602 6 12C6 12.8398 6.25691 13.6583 6.73432 14.3395C7.21173 15.0207 7.88542 15.53 8.6599 15.7953C9.43438 16.0605 10.2704 16.0682 11.0493 15.8173C11.8283 15.5664 12.5108 15.0696 13 14.3974C12.638 14.1185 12.3441 13.7566 12.1416 13.3404C11.9392 12.9243 11.8338 12.4653 11.8338 12C11.8338 11.5347 11.9392 11.0757 12.1416 10.6596C12.3441 10.2434 12.638 9.88155 13 9.60263Z" fill="white"/>
</svg>
