<svg width="26" height="20" viewBox="0 0 26 20" fill="none" xmlns="http://www.w3.org/2000/svg">
<path fill-rule="evenodd" clip-rule="evenodd" d="M24.8272 17.961H1.17282C0.517868 17.961 0 17.4513 0 16.8066V1.15442C0 0.509745 0.517868 0 1.17282 0H24.8272C25.4821 0 26 0.509745 26 1.15442V16.8066C26 17.4513 25.4821 17.961 24.8272 17.961ZM21.5372 20H20.7299C19.9379 20 19.3591 19.4153 19.3591 18.5607H22.908C22.908 19.4153 22.3292 20 21.5372 20ZM5.27006 20H4.4628C3.67077 20 3.09197 19.4153 3.09197 18.5607H6.64089C6.64089 19.4153 6.0621 20 5.27006 20ZM18.5518 15.0225H2.89397C2.40656 15.0225 2.02578 14.6327 2.02578 14.1679V3.7931C2.02578 3.32834 2.40656 2.95352 2.89397 2.95352H18.5518C19.024 2.95352 19.4048 3.32834 19.4048 3.7931V14.1679C19.4048 14.6327 19.024 15.0225 18.5518 15.0225ZM2.89397 3.55322C2.75688 3.55322 2.63503 3.65817 2.63503 3.7931V14.1679C2.63503 14.3028 2.75688 14.4228 2.89397 14.4228H18.5518C18.6889 14.4228 18.7955 14.3028 18.7955 14.1679V3.7931C18.7955 3.65817 18.6889 3.55322 18.5518 3.55322H2.89397ZM22.1465 5.5922C21.263 5.5922 20.5167 4.85757 20.5167 3.98801C20.5167 3.13343 21.263 2.3988 22.1465 2.3988C23.0146 2.3988 23.761 3.13343 23.761 3.98801C23.761 4.85757 23.0146 5.5922 22.1465 5.5922ZM22.1465 2.9985C21.5981 2.9985 21.126 3.46327 21.126 3.98801C21.126 4.52774 21.5981 4.9925 22.1465 4.9925C22.6796 4.9925 23.1517 4.52774 23.1517 3.98801C23.1517 3.46327 22.6796 2.9985 22.1465 2.9985ZM22.1465 10.03C21.263 10.03 20.5167 9.29535 20.5167 8.44078C20.5167 7.57121 21.263 6.83658 22.1465 6.83658C23.0146 6.83658 23.761 7.57121 23.761 8.44078C23.761 9.29535 23.0146 10.03 22.1465 10.03ZM22.1465 7.43628C21.5981 7.43628 21.126 7.90105 21.126 8.44078C21.126 8.96552 21.5981 9.43028 22.1465 9.43028C22.6796 9.43028 23.1517 8.96552 23.1517 8.44078C23.1517 7.90105 22.6796 7.43628 22.1465 7.43628ZM23.6696 11.8741H20.669C20.273 11.8741 20.273 11.2744 20.669 11.2744H23.6696C24.0656 11.2744 24.0656 11.8741 23.6696 11.8741ZM23.6696 13.7181H20.669C20.273 13.7181 20.273 13.1184 20.669 13.1184H23.6696C24.0656 13.1184 24.0656 13.7181 23.6696 13.7181ZM23.6696 15.5622H20.669C20.273 15.5622 20.273 14.9625 20.669 14.9625H23.6696C24.0656 14.9625 24.0656 15.5622 23.6696 15.5622ZM7.73755 9.01049L11.7434 5.08246C12.0176 4.7976 12.4593 5.21739 12.1699 5.50225L8.17926 9.44528C7.88986 9.71514 7.46339 9.29535 7.73755 9.01049ZM9.30639 12.4588L13.2665 8.57571C13.5407 8.29085 13.9824 8.71064 13.693 8.9955L9.7481 12.8786C9.4587 13.1634 9.03222 12.7436 9.30639 12.4588Z" fill="white"/>
</svg>
