<svg width="26" height="26" viewBox="0 0 26 26" fill="none" xmlns="http://www.w3.org/2000/svg">
<path d="M13 4C12.448 4 12 3.61122 12 3.1322V0.867804C12 0.388776 12.448 0 13 0C13.552 0 14 0.388776 14 0.867804V3.1322C14 3.61122 13.552 4 13 4Z" fill="white"/>
<path d="M19.7798 7C19.5801 7 19.3804 6.92408 19.2285 6.77121C18.9238 6.46651 18.9238 5.97253 19.2285 5.66782L20.668 4.22853C20.9727 3.92382 21.4667 3.92382 21.7715 4.22853C22.0762 4.53324 22.0762 5.02721 21.7715 5.33192L20.332 6.77121C20.1791 6.92304 19.9795 7 19.7798 7Z" fill="white"/>
<path d="M25.1322 14H22.8678C22.3888 14 22 13.552 22 13C22 12.448 22.3888 12 22.8678 12H25.1322C25.6112 12 26 12.448 26 13C26 13.552 25.6112 14 25.1322 14Z" fill="white"/>
<path d="M21.2192 22C21.0195 22 20.8198 21.9241 20.668 21.7712L19.2285 20.3319C18.9238 20.0272 18.9238 19.5332 19.2285 19.2285C19.5333 18.9238 20.0273 18.9238 20.332 19.2285L21.7715 20.6678C22.0762 20.9725 22.0762 21.4665 21.7715 21.7712C21.6186 21.9241 21.4189 22 21.2192 22Z" fill="white"/>
<path d="M4.77977 22C4.58008 22 4.3804 21.9241 4.22855 21.7712C3.92382 21.4665 3.92382 20.9725 4.22855 20.6678L5.66797 19.2285C5.9727 18.9238 6.46672 18.9238 6.77145 19.2285C7.07618 19.5332 7.07618 20.0272 6.77145 20.3319L5.33203 21.7712C5.17915 21.9241 4.97946 22 4.77977 22Z" fill="white"/>
<path d="M3.1322 14H0.867804C0.388776 14 0 13.552 0 13C0 12.448 0.388776 12 0.867804 12H3.1322C3.61122 12 4 12.448 4 13C4 13.552 3.61122 14 3.1322 14Z" fill="white"/>
<path d="M6.21919 7C6.0195 7 5.81981 6.92408 5.66797 6.77121L4.22855 5.33192C3.92382 5.02721 3.92382 4.53324 4.22855 4.22853C4.53328 3.92382 5.0273 3.92382 5.33203 4.22853L6.77145 5.66782C7.07618 5.97253 7.07618 6.46651 6.77145 6.77121C6.61752 6.92304 6.41888 7 6.21919 7Z" fill="white"/>
<path d="M17 23V24.25C17 25.21 16.0783 26 14.9583 26H12.0417C11.0617 26 10 25.36 10 23.96V23H17Z" fill="white"/>
<path d="M17.2253 6.71884C15.4683 5.25213 13.1542 4.67868 10.8937 5.17493C8.05467 5.78147 5.75131 8.1635 5.16208 11.0859C4.56213 14.0855 5.65489 17.063 7.99039 18.8826C8.62247 19.3679 9.06172 20.1178 9.2117 20.989V21C9.23313 20.989 9.26527 20.989 9.2867 20.989H15.7147C15.7361 20.989 15.7468 20.989 15.7682 21V20.989C15.9182 20.1509 16.4003 19.3789 17.1395 18.7834C18.9501 17.3056 20 15.1001 20 12.718C20 10.3801 18.9929 8.19658 17.2253 6.71884ZM16.5182 13.2694C16.0789 13.2694 15.7147 12.8945 15.7147 12.4423C15.7147 10.7661 14.3969 9.40966 12.7685 9.40966C12.3293 9.40966 11.965 9.03471 11.965 8.58256C11.965 8.13042 12.3293 7.75547 12.7685 7.75547C15.2754 7.75547 17.3217 9.8618 17.3217 12.4423C17.3217 12.8945 16.9574 13.2694 16.5182 13.2694Z" fill="white"/>
<path d="M10 21H10.0758C10.0542 21 10.0217 21 10 21.0108V21Z" fill="white"/>
<path d="M16.3042 21.125V21.1358C16.2825 21.125 16.2717 21.125 16.25 21.125H16.3042Z" fill="white"/>
</svg>
