<svg width="18" height="27" viewBox="0 0 18 27" fill="none" xmlns="http://www.w3.org/2000/svg">
<path d="M15.75 0H2.25001C1.00912 0 0 1.02508 0 2.28572V7.42856C0 7.74441 0.251595 8 0.562517 8H17.4375C17.7484 8 18 7.74441 18 7.42856V2.28572C18 1.02508 16.9909 0 15.75 0ZM6.18752 5.71428H2.81253C2.58509 5.71428 2.37969 5.57531 2.29289 5.36162C2.20556 5.14787 2.25386 4.90235 2.41486 4.73885L2.97738 4.16741C3.19712 3.94418 3.55308 3.94418 3.77277 4.16741C3.88261 4.279 3.93756 4.42525 3.93756 4.57144H6.18758C6.4985 4.57144 6.75009 4.82703 6.75009 5.14289C6.75009 5.45874 6.49845 5.71428 6.18752 5.71428Z" fill="white"/>
<path d="M17.4374 9H0.562515C0.251594 9 0 9.25159 0 9.56251V23.6249C0 24.8658 1.00907 25.8749 2.25001 25.8749V26.4374C2.25001 26.7484 2.5016 26.9999 2.81252 26.9999H3.9375C4.24842 26.9999 4.50001 26.7484 4.50001 26.4374V25.8749H13.5V26.4374C13.5 26.7484 13.7516 26.9999 14.0625 26.9999H15.1875C15.4984 26.9999 15.75 26.7484 15.75 26.4374V25.8749C16.9909 25.8749 18 24.8659 18 23.6249V9.56246C17.9999 9.25159 17.7484 9 17.4374 9ZM6.18751 12.375H2.81252C2.58508 12.375 2.37968 12.2382 2.29288 12.0278C2.20555 11.8174 2.25386 11.5757 2.41485 11.4148L2.97737 10.8523C3.19711 10.6325 3.55307 10.6325 3.77276 10.8523C3.8826 10.9621 3.93755 11.1061 3.93755 11.25H6.18756C6.49848 11.25 6.75007 11.5016 6.75007 11.8125C6.75007 12.1234 6.49843 12.375 6.18751 12.375Z" fill="white"/>
</svg>
