<svg width="26" height="25" viewBox="0 0 26 25" fill="none" xmlns="http://www.w3.org/2000/svg">
<path d="M0 16.451C0.00842222 17.2377 0.643807 17.8736 1.43054 17.8828H24.5695C25.3562 17.8736 25.9916 17.2377 26 16.451V15.2194H0V16.451Z" fill="white"/>
<path d="M24.5695 0H1.43054C0.652725 0 0 0.6012 0 1.37902V14.3317H26V1.37902C26 0.6012 25.3473 0 24.5695 0Z" fill="white"/>
<path d="M19.0338 23.0197H16.1073V18.7709H9.89268V23.0197H7.29961C6.94935 23.0197 6.66547 23.3035 6.66547 23.6538C6.66547 24.0041 6.94935 24.2879 7.29961 24.2879H19.0338C19.3841 24.2879 19.6679 24.0041 19.6679 23.6538C19.6679 23.3035 19.3841 23.0197 19.0338 23.0197Z" fill="white"/>
</svg>
