<svg width="26" height="25" viewBox="0 0 26 25" fill="none" xmlns="http://www.w3.org/2000/svg">
<path d="M11.3872 9.81084C11.0897 10.1084 11.0897 10.5904 11.3872 10.888C11.6847 11.1855 12.1668 11.1855 12.4643 10.888C12.5484 10.8046 12.7292 10.6641 12.9999 10.6641C13.2707 10.6641 13.4515 10.8047 13.5355 10.888C13.833 11.1855 14.3151 11.1855 14.6126 10.888C14.9102 10.5904 14.9102 10.1084 14.6126 9.81084C14.3627 9.56018 13.8204 9.14062 12.9999 9.14062C12.1794 9.14062 11.6372 9.56018 11.3872 9.81084Z" fill="white"/>
<path d="M12.9998 0C9.94843 0 7.07858 1.19021 4.91992 3.35039C4.6224 3.64792 4.6224 4.1307 4.91992 4.42752C5.21745 4.72504 5.69952 4.72504 5.99704 4.42752C7.86859 2.55445 10.3553 1.52344 12.9998 1.52344C15.6442 1.52344 18.131 2.55445 20.0025 4.42752C20.3 4.72504 20.7821 4.72509 21.0796 4.42752C21.3772 4.1307 21.3772 3.64792 21.0796 3.35039C18.921 1.19021 16.0511 0 12.9998 0Z" fill="white"/>
<path d="M18.924 6.581C19.2215 6.28418 19.2215 5.8014 18.924 5.50388C17.341 3.91945 15.2374 3.04688 12.9998 3.04688C10.7623 3.04688 8.65864 3.91945 7.07568 5.50388C6.77816 5.8014 6.77816 6.28418 7.07568 6.581C7.37321 6.87852 7.85528 6.87852 8.15281 6.581C9.44859 5.28445 11.1692 4.57031 12.9998 4.57031C14.8305 4.57031 16.5511 5.28445 17.8468 6.581C18.1444 6.87852 18.6264 6.87852 18.924 6.581Z" fill="white"/>
<path d="M16.7683 8.73453C17.0658 8.43771 17.0658 7.95493 16.7683 7.65741C14.7539 5.64154 11.2458 5.64154 9.23145 7.65741C8.93392 7.95493 8.93392 8.43771 9.23145 8.73453C9.52897 9.03205 10.011 9.03205 10.3086 8.73453C11.7487 7.2929 14.2511 7.2929 15.6912 8.73453C15.9887 9.03205 16.4707 9.03205 16.7683 8.73453Z" fill="white"/>
<path d="M23.7148 13.7109H2.28516C1.02507 13.7109 0 14.736 0 15.9961V20.5664C0 21.8265 1.02507 22.8516 2.28516 22.8516H3.04688V23.6641C3.04688 24.0851 3.38757 24.4258 3.80859 24.4258C4.22962 24.4258 4.57031 24.0851 4.57031 23.6641V22.8516H21.4297V23.6641C21.4297 24.0851 21.7704 24.4258 22.1914 24.4258C22.6124 24.4258 22.9531 24.0851 22.9531 23.6641V22.8516H23.7148C24.9749 22.8516 26 21.8265 26 20.5664V15.9961C26 14.736 24.9749 13.7109 23.7148 13.7109ZM16.8594 19.043C16.8594 19.464 16.5187 19.8047 16.0977 19.8047C15.6766 19.8047 15.3359 19.464 15.3359 19.043V17.5195C15.3359 17.0985 15.6766 16.7578 16.0977 16.7578C16.5187 16.7578 16.8594 17.0985 16.8594 17.5195V19.043ZM19.9062 19.043C19.9062 19.464 19.5656 19.8047 19.1445 19.8047C18.7235 19.8047 18.3828 19.464 18.3828 19.043V17.5195C18.3828 17.0985 18.7235 16.7578 19.1445 16.7578C19.5656 16.7578 19.9062 17.0985 19.9062 17.5195V19.043ZM22.9531 19.043C22.9531 19.464 22.6124 19.8047 22.1914 19.8047C21.7704 19.8047 21.4297 19.464 21.4297 19.043V17.5195C21.4297 17.0985 21.7704 16.7578 22.1914 16.7578C22.6124 16.7578 22.9531 17.0985 22.9531 17.5195V19.043Z" fill="white"/>
<path d="M0.512856 3.10844C0.126004 3.27429 -0.0532535 3.72213 0.112649 4.10817L3.57517 12.1873H5.23206L1.51259 3.50864C1.34673 3.12032 0.894426 2.9403 0.512856 3.10844Z" fill="white"/>
<path d="M22.4249 12.1876L25.8874 4.10844C26.0533 3.72235 25.874 3.27456 25.4872 3.10866C25.1027 2.94204 24.6533 3.1213 24.4874 3.50887L20.7681 12.1876H22.4249Z" fill="white"/>
</svg>
