<svg width="26" height="26" viewBox="0 0 26 26" fill="none" xmlns="http://www.w3.org/2000/svg">
<path d="M23 18.4412V10.2803C23 8.86176 21.668 7.77531 20.2547 8.03987C20.1211 8.06506 19.9886 8.09228 19.8571 8.12251V14.6619C19.8571 19.0628 16.3414 22.5724 12 22.9432V23.7324C12 24.9826 13.0576 26 14.3571 26H19.4894C18.7409 25.1973 18.2857 24.137 18.2857 22.9765C18.2857 20.4755 20.4003 18.4412 23 18.4412Z" fill="white"/>
<path d="M23 20C21.346 20 20 21.346 20 23C20 24.654 21.346 26 23 26C24.654 26 26 24.654 26 23C26 21.346 24.654 20 23 20ZM23 23.75C22.586 23.75 22.25 23.414 22.25 23C22.25 22.586 22.586 22.25 23 22.25C23.414 22.25 23.75 22.586 23.75 23C23.75 23.414 23.414 23.75 23 23.75Z" fill="white"/>
<path d="M10.8149 18.3828H12.0331V21.388C15.3359 21.0207 18 18.1591 18 14.5742V8.47742C14.676 9.89168 12.3429 13.1239 12.062 16.8594H10.8149C10.198 16.8594 9.69613 16.3468 9.69613 15.7168V2.66602C9.69613 1.196 8.52504 0 7.08564 0C5.64623 0 4.47514 1.196 4.47514 2.66602V21.4297H3.72928C1.67271 21.4297 0 23.138 0 25.2383C0 25.6588 0.334144 26 0.745856 26H9.69613C10.1078 26 10.442 25.6588 10.442 25.2383C10.442 23.138 8.76928 21.4297 6.71271 21.4297H5.96685V2.66602C5.96685 2.03602 6.46876 1.52344 7.08564 1.52344C7.70251 1.52344 8.20442 2.03602 8.20442 2.66602V15.7168C8.20442 17.1868 9.37551 18.3828 10.8149 18.3828Z" fill="white"/>
</svg>
